<svg aria-hidden="true" style="position: absolute; width: 0; height: 0; overflow: hidden;" version="1.1" xmlns="http://www.w3.org/2000/svg" xmlns:xlink="http://www.w3.org/1999/xlink">
<defs>
<symbol id="icon-facebook" viewBox="0 0 16 28">
<title>facebook</title>
<path d="M14.984 0.187v4.125h-2.453c-1.922 0-2.281 0.922-2.281 2.25v2.953h4.578l-0.609 4.625h-3.969v11.859h-4.781v-11.859h-3.984v-4.625h3.984v-3.406c0-3.953 2.422-6.109 5.953-6.109 1.687 0 3.141 0.125 3.563 0.187z"></path>
</symbol>
<symbol id="icon-linkedin" viewBox="0 0 24 28">
<title>linkedin</title>
<path d="M5.453 9.766v15.484h-5.156v-15.484h5.156zM5.781 4.984c0.016 1.484-1.109 2.672-2.906 2.672v0h-0.031c-1.734 0-2.844-1.188-2.844-2.672 0-1.516 1.156-2.672 2.906-2.672 1.766 0 2.859 1.156 2.875 2.672zM24 16.375v8.875h-5.141v-8.281c0-2.078-0.75-3.5-2.609-3.5-1.422 0-2.266 0.953-2.641 1.875-0.125 0.344-0.172 0.797-0.172 1.266v8.641h-5.141c0.063-14.031 0-15.484 0-15.484h5.141v2.25h-0.031c0.672-1.062 1.891-2.609 4.672-2.609 3.391 0 5.922 2.219 5.922 6.969z"></path>
</symbol>
<symbol id="icon-angle-down" viewBox="0 0 18 28">
<title>angle-down</title>
<path d="M16.797 11.5c0 0.125-0.063 0.266-0.156 0.359l-7.281 7.281c-0.094 0.094-0.234 0.156-0.359 0.156s-0.266-0.063-0.359-0.156l-7.281-7.281c-0.094-0.094-0.156-0.234-0.156-0.359s0.063-0.266 0.156-0.359l0.781-0.781c0.094-0.094 0.219-0.156 0.359-0.156 0.125 0 0.266 0.063 0.359 0.156l6.141 6.141 6.141-6.141c0.094-0.094 0.234-0.156 0.359-0.156s0.266 0.063 0.359 0.156l0.781 0.781c0.094 0.094 0.156 0.234 0.156 0.359z"></path>
</symbol>
<symbol id="icon-codepen" viewBox="0 0 28 28">
<title>codepen</title>
<path d="M3.375 18.266l9.422 6.281v-5.609l-5.219-3.484zM2.406 16.016l3.016-2.016-3.016-2.016v4.031zM15.203 24.547l9.422-6.281-4.203-2.812-5.219 3.484v5.609zM14 16.844l4.25-2.844-4.25-2.844-4.25 2.844zM7.578 12.547l5.219-3.484v-5.609l-9.422 6.281zM22.578 14l3.016 2.016v-4.031zM20.422 12.547l4.203-2.812-9.422-6.281v5.609zM28 9.734v8.531c0 0.391-0.203 0.781-0.531 1l-12.797 8.531c-0.203 0.125-0.438 0.203-0.672 0.203s-0.469-0.078-0.672-0.203l-12.797-8.531c-0.328-0.219-0.531-0.609-0.531-1v-8.531c0-0.391 0.203-0.781 0.531-1l12.797-8.531c0.203-0.125 0.438-0.203 0.672-0.203s0.469 0.078 0.672 0.203l12.797 8.531c0.328 0.219 0.531 0.609 0.531 1z"></path>
</symbol>
</defs>
</svg>
